<svg width="51" height="67" viewBox="0 0 51 67" fill="none" xmlns="http://www.w3.org/2000/svg">
<path d="M20.7812 0.984721C18.6281 1.29103 16.4886 1.84236 14.3831 2.63194C12.1485 3.47598 10.8376 6.16466 11.5439 8.41089C12.0669 10.0717 13.5612 10.9906 15.1981 10.7592C15.4358 10.7252 15.6803 10.6639 15.9248 10.5823C16.8486 10.2555 17.7927 9.99005 18.7572 9.77904C19.3277 9.65652 19.8914 9.55443 20.4552 9.47275C32.2326 7.8119 42.1015 15.803 42.8826 28.0075C43.6976 40.7838 34.2227 53.3491 21.7117 56.065C21.1479 56.1875 20.5842 56.2896 20.0273 56.3645C15.823 56.9567 11.8564 56.3168 8.46036 54.6968C7.44834 54.2135 6.32085 54.057 5.17978 54.2203C4.43265 54.3293 3.67876 54.5675 2.952 54.9419C0.40498 56.2624 -0.172353 59.9585 1.9264 61.4832C6.0356 64.4645 10.9463 66.0981 16.1558 66.2207C17.65 66.2547 19.1579 66.1662 20.6589 65.9552C24.3878 65.4311 28.103 64.1582 31.6077 62.1843C36.5184 59.4139 40.8382 55.3639 44.1391 50.4494C47.4401 45.5281 49.5999 39.9194 50.4014 34.1677C51.2028 28.4159 50.6187 22.7323 48.7102 17.6953C46.8016 12.6583 43.6229 8.43131 39.5205 5.44995C35.4113 2.46859 30.5006 0.834963 25.2911 0.719248C23.7901 0.685214 22.2822 0.773712 20.7812 0.984721Z" fill="url(#paint0_linear_1_380)"/>
<defs>
<linearGradient id="paint0_linear_1_380" x1="-2.30698" y1="-5.98836" x2="58.8546" y2="-4.78537" gradientUnits="userSpaceOnUse">
<stop stop-color="#DA458F"/>
<stop offset="1" stop-color="#DA34DD"/>
</linearGradient>
</defs>
</svg>
